<mxfile host="app.diagrams.net" agent="Mozilla/5.0 (Windows NT 10.0; Win64; x64) AppleWebKit/537.36 (KHTML, like Gecko) Chrome/128.0.0.0 Safari/537.36 OPR/114.0.0.0" version="24.8.1">
  <diagram name="PÃ¡gina-1" id="Y1NktliEbhfeJ1NCcNYc">
    <mxGraphModel dx="1358" dy="732" grid="1" gridSize="10" guides="1" tooltips="1" connect="1" arrows="1" fold="1" page="1" pageScale="1" pageWidth="827" pageHeight="1169" math="0" shadow="0">
      <root>
        <mxCell id="0" />
        <mxCell id="1" parent="0" />
        <mxCell id="oqpaJSngCtaZw-BHucWj-13" style="edgeStyle=orthogonalEdgeStyle;rounded=0;orthogonalLoop=1;jettySize=auto;html=1;" edge="1" parent="1" source="oqpaJSngCtaZw-BHucWj-1" target="oqpaJSngCtaZw-BHucWj-2">
          <mxGeometry relative="1" as="geometry" />
        </mxCell>
        <mxCell id="oqpaJSngCtaZw-BHucWj-1" value="API CEP" style="outlineConnect=0;dashed=0;verticalLabelPosition=bottom;verticalAlign=top;align=center;html=1;shape=mxgraph.aws3.api_gateway;fillColor=#D9A741;gradientColor=none;" vertex="1" parent="1">
          <mxGeometry x="165.75" y="410" width="76.5" height="93" as="geometry" />
        </mxCell>
        <mxCell id="oqpaJSngCtaZw-BHucWj-5" value="" style="edgeStyle=orthogonalEdgeStyle;rounded=0;orthogonalLoop=1;jettySize=auto;html=1;" edge="1" parent="1" source="oqpaJSngCtaZw-BHucWj-2" target="oqpaJSngCtaZw-BHucWj-3">
          <mxGeometry relative="1" as="geometry" />
        </mxCell>
        <mxCell id="oqpaJSngCtaZw-BHucWj-11" value="" style="edgeStyle=orthogonalEdgeStyle;rounded=0;orthogonalLoop=1;jettySize=auto;html=1;" edge="1" parent="1" source="oqpaJSngCtaZw-BHucWj-2" target="oqpaJSngCtaZw-BHucWj-1">
          <mxGeometry relative="1" as="geometry" />
        </mxCell>
        <mxCell id="oqpaJSngCtaZw-BHucWj-12" style="edgeStyle=orthogonalEdgeStyle;rounded=0;orthogonalLoop=1;jettySize=auto;html=1;" edge="1" parent="1" source="oqpaJSngCtaZw-BHucWj-2" target="oqpaJSngCtaZw-BHucWj-1">
          <mxGeometry relative="1" as="geometry" />
        </mxCell>
        <mxCell id="oqpaJSngCtaZw-BHucWj-2" value="Microservice" style="image;aspect=fixed;html=1;points=[];align=center;fontSize=12;image=img/lib/azure2/compute/Azure_Spring_Cloud.svg;" vertex="1" parent="1">
          <mxGeometry x="170" y="630" width="68" height="68" as="geometry" />
        </mxCell>
        <mxCell id="oqpaJSngCtaZw-BHucWj-6" value="" style="edgeStyle=orthogonalEdgeStyle;rounded=0;orthogonalLoop=1;jettySize=auto;html=1;" edge="1" parent="1" source="oqpaJSngCtaZw-BHucWj-3" target="oqpaJSngCtaZw-BHucWj-4">
          <mxGeometry relative="1" as="geometry" />
        </mxCell>
        <mxCell id="oqpaJSngCtaZw-BHucWj-10" style="edgeStyle=orthogonalEdgeStyle;rounded=0;orthogonalLoop=1;jettySize=auto;html=1;" edge="1" parent="1" source="oqpaJSngCtaZw-BHucWj-3" target="oqpaJSngCtaZw-BHucWj-2">
          <mxGeometry relative="1" as="geometry" />
        </mxCell>
        <mxCell id="oqpaJSngCtaZw-BHucWj-3" value="Imagem docker" style="image;sketch=0;aspect=fixed;html=1;points=[];align=center;fontSize=12;image=img/lib/mscae/Docker.svg;" vertex="1" parent="1">
          <mxGeometry x="328" y="629" width="85.36" height="70" as="geometry" />
        </mxCell>
        <mxCell id="oqpaJSngCtaZw-BHucWj-4" value="Base PostgreSQL" style="image;aspect=fixed;html=1;points=[];align=center;fontSize=12;image=img/lib/azure2/databases/Azure_Database_PostgreSQL_Server.svg;" vertex="1" parent="1">
          <mxGeometry x="490" y="632" width="48" height="64" as="geometry" />
        </mxCell>
        <mxCell id="oqpaJSngCtaZw-BHucWj-9" style="edgeStyle=orthogonalEdgeStyle;rounded=0;orthogonalLoop=1;jettySize=auto;html=1;entryX=0.843;entryY=0.5;entryDx=0;entryDy=0;entryPerimeter=0;" edge="1" parent="1" source="oqpaJSngCtaZw-BHucWj-4" target="oqpaJSngCtaZw-BHucWj-3">
          <mxGeometry relative="1" as="geometry" />
        </mxCell>
      </root>
    </mxGraphModel>
  </diagram>
</mxfile>
